<mxfile host="app.diagrams.net" modified="2023-02-06T01:01:27.608Z" agent="5.0 (Macintosh; Intel Mac OS X 10_15_7) AppleWebKit/537.36 (KHTML, like Gecko) Chrome/109.0.0.0 Safari/537.36" etag="S_Xqm4wC3RwUVNtOqSWD" version="15.0.3" type="github">
  <diagram id="wr6bPcHOw6iatCMtWR5y" name="Page-1">
    <mxGraphModel dx="939" dy="494" grid="1" gridSize="10" guides="1" tooltips="1" connect="1" arrows="1" fold="1" page="1" pageScale="1" pageWidth="850" pageHeight="1100" math="0" shadow="0">
      <root>
        <mxCell id="0" />
        <mxCell id="1" parent="0" />
        <mxCell id="RfFTVtDlpMOTKNmOlZs--1" value="Actor" style="shape=umlActor;verticalLabelPosition=bottom;verticalAlign=top;html=1;outlineConnect=0;" vertex="1" parent="1">
          <mxGeometry x="170" y="220" width="30" height="60" as="geometry" />
        </mxCell>
        <mxCell id="RfFTVtDlpMOTKNmOlZs--2" value="RHSSO" style="whiteSpace=wrap;html=1;aspect=fixed;" vertex="1" parent="1">
          <mxGeometry x="410" y="10" width="140" height="140" as="geometry" />
        </mxCell>
        <mxCell id="RfFTVtDlpMOTKNmOlZs--3" value="" style="endArrow=classic;html=1;" edge="1" parent="1">
          <mxGeometry width="50" height="50" relative="1" as="geometry">
            <mxPoint x="230" y="240" as="sourcePoint" />
            <mxPoint x="400" y="90" as="targetPoint" />
            <Array as="points" />
          </mxGeometry>
        </mxCell>
        <mxCell id="RfFTVtDlpMOTKNmOlZs--4" value="DigioAtende" style="rounded=1;whiteSpace=wrap;html=1;" vertex="1" parent="1">
          <mxGeometry x="410" y="210" width="140" height="60" as="geometry" />
        </mxCell>
        <mxCell id="RfFTVtDlpMOTKNmOlZs--5" value="" style="endArrow=classic;html=1;exitX=0.5;exitY=1;exitDx=0;exitDy=0;" edge="1" parent="1" source="RfFTVtDlpMOTKNmOlZs--2">
          <mxGeometry width="50" height="50" relative="1" as="geometry">
            <mxPoint x="400" y="250" as="sourcePoint" />
            <mxPoint x="480" y="205" as="targetPoint" />
          </mxGeometry>
        </mxCell>
        <mxCell id="RfFTVtDlpMOTKNmOlZs--6" value="Tem REALMs, Groups e Roles para indicar o que cada perfil pode fazer.&lt;br&gt;&lt;br&gt;Criação de usuários e grupos com Gestão de Acessos.&lt;br&gt;&lt;br&gt;Roles e associação de grupos com perfis está sob nosso controle." style="text;html=1;strokeColor=none;fillColor=none;align=center;verticalAlign=middle;whiteSpace=wrap;rounded=0;" vertex="1" parent="1">
          <mxGeometry x="560" y="20" width="210" height="100" as="geometry" />
        </mxCell>
        <mxCell id="RfFTVtDlpMOTKNmOlZs--7" value="Criamos Widgets com possibilidades de controle por autorização ou por widgets, mostrando ou escondendo-as." style="text;html=1;strokeColor=none;fillColor=none;align=center;verticalAlign=middle;whiteSpace=wrap;rounded=0;" vertex="1" parent="1">
          <mxGeometry x="570" y="195" width="180" height="90" as="geometry" />
        </mxCell>
        <mxCell id="RfFTVtDlpMOTKNmOlZs--8" value="" style="endArrow=classic;html=1;" edge="1" parent="1" source="RfFTVtDlpMOTKNmOlZs--4" target="RfFTVtDlpMOTKNmOlZs--10">
          <mxGeometry width="50" height="50" relative="1" as="geometry">
            <mxPoint x="360" y="240" as="sourcePoint" />
            <mxPoint x="450" y="340" as="targetPoint" />
          </mxGeometry>
        </mxCell>
        <mxCell id="RfFTVtDlpMOTKNmOlZs--10" value="Atendimento" style="rounded=1;whiteSpace=wrap;html=1;" vertex="1" parent="1">
          <mxGeometry x="340" y="350" width="120" height="60" as="geometry" />
        </mxCell>
        <mxCell id="RfFTVtDlpMOTKNmOlZs--11" value="Backoffice" style="rounded=1;whiteSpace=wrap;html=1;" vertex="1" parent="1">
          <mxGeometry x="510" y="350" width="120" height="60" as="geometry" />
        </mxCell>
        <mxCell id="RfFTVtDlpMOTKNmOlZs--12" value="" style="endArrow=classic;html=1;exitX=0.75;exitY=1;exitDx=0;exitDy=0;entryX=0.417;entryY=0.017;entryDx=0;entryDy=0;entryPerimeter=0;" edge="1" parent="1" source="RfFTVtDlpMOTKNmOlZs--4" target="RfFTVtDlpMOTKNmOlZs--11">
          <mxGeometry width="50" height="50" relative="1" as="geometry">
            <mxPoint x="330" y="250" as="sourcePoint" />
            <mxPoint x="450" y="200" as="targetPoint" />
          </mxGeometry>
        </mxCell>
        <mxCell id="RfFTVtDlpMOTKNmOlZs--13" value="As grandes área do Digio Atende são plugáveis. O módulo main lê um arquivo yaml com os serviços disponíveis.&lt;br&gt;&lt;br&gt;Outros times precisam criar o módulo em separado, totalmente independente, e nos informam o texto do botão, bem como seu ícone. Por fim, também nos informam a rota principal e o endereço do repositório." style="text;html=1;strokeColor=none;fillColor=none;align=center;verticalAlign=middle;whiteSpace=wrap;rounded=0;" vertex="1" parent="1">
          <mxGeometry x="300" y="470" width="390" height="20" as="geometry" />
        </mxCell>
      </root>
    </mxGraphModel>
  </diagram>
</mxfile>
